<?xml version="1.0" encoding="utf-8"?>
<svg version="1.1" xmlns="http://www.w3.org/2000/svg" width="1024" height="1024">
  <path d="M0 0 C1.28245338 -0.00706559 2.56490676 -0.01413118 3.88622236 -0.02141088 C5.31251779 -0.01915943 6.73881293 -0.01671292 8.16510773 -0.01409245 C9.67793687 -0.01854376 11.19076368 -0.02385745 12.70358706 -0.02996117 C16.86717937 -0.0441652 21.03069712 -0.045804 25.19431019 -0.04536426 C29.68259798 -0.04701042 34.17085488 -0.06007339 38.65912628 -0.07155704 C48.47756338 -0.09442456 58.29597889 -0.10232996 68.11443901 -0.10738349 C74.24608304 -0.11063933 80.37772079 -0.11716124 86.50936127 -0.12438488 C103.48778583 -0.14395529 120.46620454 -0.16035618 137.44464111 -0.16326141 C138.53156282 -0.16344898 139.61848454 -0.16363655 140.73834327 -0.16382981 C142.94180584 -0.16419606 145.14526841 -0.16455976 147.34873098 -0.16492092 C148.9894311 -0.16519514 148.9894311 -0.16519514 150.66327667 -0.16547489 C152.30598143 -0.16574572 152.30598143 -0.16574572 153.98187214 -0.16602201 C171.71771422 -0.16956185 189.45343474 -0.19657039 207.18923467 -0.23397278 C225.40070561 -0.2720706 243.61211628 -0.29141901 261.82362795 -0.29172093 C272.04765831 -0.29230526 282.27154377 -0.30078168 292.4955368 -0.32971859 C301.20396718 -0.35425249 309.91219987 -0.36150198 318.62065548 -0.34647106 C323.06169895 -0.33930966 327.5023522 -0.34012609 331.94335175 -0.36288166 C336.01498226 -0.383544 340.08592437 -0.38080427 344.15754801 -0.36000682 C345.62466302 -0.35652565 347.09182843 -0.3613634 348.55887741 -0.37571125 C359.89109084 -0.47933134 369.59036014 1.16904641 378.24188995 8.95098019 C382.13158234 13.24850237 384.41804358 17.89059889 386.63007355 23.20537472 C387.04526245 24.1596133 387.46045135 25.11385189 387.88822174 26.0970068 C389.20852043 29.14384279 390.50188022 32.20124261 391.79413605 35.26006222 C392.64707204 37.24217791 393.50155877 39.22362703 394.35761261 41.20439816 C396.59267683 46.39176777 398.80235588 51.58954532 401.00382233 56.79125118 C403.50480068 62.70004645 406.01556904 68.604685 408.5246048 74.51006222 C409.0477968 75.7421425 409.57097487 76.97422869 410.0941391 78.20632076 C415.61057332 91.19516244 421.168743 104.16606248 426.73163605 117.13506222 C427.73441371 119.47343652 428.7371806 121.81181544 429.73993683 124.15019894 C431.75239191 128.84284758 433.7651356 133.53537233 435.77802277 138.22783566 C440.2862759 148.7381578 444.7905567 159.25018236 449.29514313 169.76207638 C451.79464528 175.59480782 454.29440361 181.42742947 456.79413605 187.26006222 C457.79413728 189.59339502 458.79413728 191.92672836 459.79413605 194.26006222 C460.28913605 195.41506222 460.78413605 196.57006222 461.29413605 197.76006222 C513.79413604 320.2600622 513.79413604 320.2600622 515.29387665 323.75946712 C516.29473149 326.09478831 517.29559617 328.43010528 518.29647064 330.76541805 C520.78347182 336.56830289 523.27030678 342.37125885 525.75678253 348.17436886 C530.41140713 359.03717017 535.06765899 369.89926611 539.72959137 380.75893307 C541.64677339 385.2249206 543.56314386 389.69125624 545.47934151 394.15766621 C546.77996464 397.18907927 548.08118242 400.22023492 549.38324738 403.25102901 C552.13288352 409.65145777 554.87524383 416.05486365 557.60263824 422.46480465 C558.37569135 424.27838964 559.15154691 426.0907836 559.93070221 427.90175533 C560.94024253 430.24957895 561.93905093 432.60165979 562.93476105 434.95537472 C563.22105881 435.61448345 563.50735657 436.27359219 563.80233002 436.95267391 C567.04736393 444.70573544 566.95304285 451.64424168 564.23163605 459.51006222 C560.52944357 467.64703651 554.58430797 473.37193124 546.61654168 477.34624374 C542.97485078 478.52532459 539.54544316 478.53270969 535.76064587 478.50615788 C534.95289914 478.50846556 534.14515242 478.51077325 533.31292853 478.51315087 C530.59521219 478.51846186 527.87773087 478.50945763 525.16002655 478.50057125 C523.19643054 478.50144309 521.23283475 478.50319368 519.2692402 478.50574958 C513.86475974 478.51023132 508.46035822 478.50220806 503.05588782 478.49219346 C497.23110873 478.48357316 491.40633426 478.48647811 485.5815506 478.48799801 C475.48683043 478.48904776 465.39213608 478.48276173 455.29742241 478.47152233 C440.70208396 478.45528252 426.10675548 478.4500542 411.51140932 478.44754635 C387.83261396 478.44334479 364.15383204 478.42986803 340.47504425 478.41094112 C317.47048769 478.39257436 294.4659348 478.3784061 271.46137238 478.3699255 C270.75235345 478.36966245 270.04333452 478.36939939 269.31283017 478.36912837 C262.19261333 478.36649135 255.07239647 478.36393972 247.95217958 478.36145065 C233.44729382 478.35637814 218.9424083 478.35073563 204.43752289 478.3447485 C203.7706021 478.34447392 203.10368131 478.34419934 202.4165508 478.34391644 C157.87574027 478.32551307 113.33493728 478.29378085 68.79413605 478.26006222 C71.02984088 476.02435739 72.14843487 475.72904739 75.14569855 474.92021847 C97.35271578 468.55431302 120.14931213 459.10014221 138.79413605 445.26006222 C139.74417511 444.66967159 140.69421417 444.07928097 141.6730423 443.47099972 C142.7229837 442.37658566 142.7229837 442.37658566 143.79413605 441.26006222 C143.53347258 434.94598306 141.15047208 429.38347133 138.8761673 423.54912472 C138.47157288 422.4939616 138.06697845 421.43879848 137.6501236 420.35166073 C136.30927426 416.86006423 134.9579976 413.37260215 133.60663605 409.88506222 C132.65686602 407.41809908 131.70767673 404.95091998 130.75922394 402.48345089 C128.52404909 396.67237628 126.28135187 390.86423706 124.03545094 385.05730057 C121.42119723 378.29745306 118.81472059 371.53461299 116.20819855 364.77178097 C112.54290449 355.26503403 108.8730714 345.7600497 105.20038605 336.25615597 C100.03416828 322.88629129 94.87813623 309.51252916 89.73163605 296.13506222 C89.32519867 295.07864529 88.91876129 294.02222836 88.50000763 292.93379879 C81.55834029 274.88632431 74.66034425 256.82231623 67.76996613 238.75520992 C61.95678804 223.51483456 56.11799206 208.28482675 50.23163605 193.07256222 C49.8929953 192.19738949 49.55435455 191.32221676 49.20545197 190.42052364 C48.51890115 188.64631182 47.83234717 186.87210121 47.1457901 185.09789181 C46.80286926 184.21168148 46.45994843 183.32547115 46.10663605 182.41240597 C45.76202332 181.52184505 45.41741058 180.63128414 45.06235504 179.71373653 C40.6055316 168.19261788 36.16703667 156.6644424 31.73163605 145.13506222 C31.31392944 144.04927883 30.89622284 142.96349545 30.46585846 141.84480953 C22.19312571 120.33514198 13.97952 98.80310412 5.79413605 77.26006222 C7.70921704 93.1311653 9.85800129 108.9514796 12.23163605 124.76006222 C12.57527972 127.06365909 12.91869528 129.36728999 13.26190948 131.67095089 C14.32818393 138.82001167 15.39960951 145.96829458 16.47241211 153.11637783 C16.80125733 155.30751214 17.13001278 157.49865991 17.45874786 159.68981075 C18.64979948 167.62839852 19.84127244 175.56692305 21.03290558 183.50542355 C21.15641766 184.32825801 21.27992973 185.15109247 21.4071846 185.99886131 C22.04205361 190.22822892 22.67702027 194.45758183 23.31214142 198.68691158 C27.18506758 224.47846892 31.03542489 250.27329055 34.85663605 276.07256222 C34.98023876 276.90705772 35.10384148 277.74155323 35.23118973 278.60133648 C39.28031505 305.94289086 43.29783197 333.28904396 47.30252838 360.63713741 C50.06989898 379.53551736 52.84997925 398.43182084 55.66913605 417.32256222 C55.94569693 419.17810774 56.22222767 421.03365775 56.49872589 422.88921261 C57.64440469 430.57428379 58.79306795 438.2588734 59.95197296 445.94196224 C60.43584259 449.15511254 60.91632025 452.36876385 61.39600372 455.58254147 C61.61553945 457.04772983 61.83662716 458.51268671 62.05945587 459.97737789 C62.35909333 461.94730939 62.65293583 463.91811975 62.9464798 465.88896847 C63.11139923 466.98281857 63.27631866 468.07666866 63.44623566 469.20366573 C63.79413605 472.26006222 63.79413605 472.26006222 63.79413605 478.26006222 C24.52413605 478.26006222 -14.74586395 478.26006222 -55.20586395 478.26006222 C-54.08301529 464.78587824 -54.08301529 464.78587824 -53.26055145 459.81084347 C-53.07468475 458.66116085 -52.88881805 457.51147823 -52.69731903 456.32695675 C-52.49388885 455.08800655 -52.29045868 453.84905636 -52.08086395 452.57256222 C-49.90169266 439.03148419 -47.93201408 425.4659336 -46.01836395 411.88506222 C-43.31114209 392.70249986 -40.45306636 373.54536662 -37.53149414 354.39457226 C-34.48485484 334.42381273 -31.47216432 314.45064037 -28.64336395 294.44756222 C-24.94035092 268.27558938 -21.07697155 242.12800294 -17.2016468 215.98107243 C-16.11940291 208.67829242 -15.03909174 201.37522677 -13.95874786 194.07216549 C-12.77458679 186.06739222 -11.58971466 178.06272422 -10.40477371 170.05806637 C-10.02734259 167.50822002 -9.64999784 164.9583609 -9.27266693 162.40849972 C-8.66830838 158.32468862 -8.06335153 154.24096639 -7.45823479 150.15726757 C-7.10249548 147.75471561 -6.74756345 145.35204537 -6.39270782 142.94936275 C-5.26066287 135.29535451 -4.1155924 127.64367553 -2.93889713 119.99638939 C-2.3735868 116.32164134 -1.81227579 112.64628591 -1.25091362 108.97093296 C-0.98188651 107.21834418 -0.71071017 105.46608376 -0.43722725 103.71418476 C-0.05750426 101.2814506 0.31491939 98.84769464 0.68598175 96.41362667 C0.79875521 95.70448683 0.91152866 94.99534698 1.0277195 94.26471806 C1.73980702 89.53145686 1.88877957 85.02970814 1.79413605 80.26006222 C1.58941177 80.79986217 1.3846875 81.33966213 1.17375946 81.89581966 C-8.90093368 108.45741566 -19.00219679 135.00803588 -29.22090912 161.51457882 C-33.02641969 171.38617708 -36.82278007 181.2612937 -40.61995697 191.13609982 C-42.75639337 196.69184822 -44.89326096 202.24743077 -47.0300827 207.80303097 C-47.89515636 210.05221638 -48.76022798 212.30140258 -49.62529755 214.55058956 C-51.3261439 218.97279008 -53.02699025 223.3949906 -54.72783661 227.81719112 C-55.14055313 228.89025509 -55.55326965 229.96331905 -55.97849274 231.06890011 C-56.80963625 233.22987121 -57.64078249 235.39084126 -58.47193146 237.55181026 C-60.54810129 242.94981622 -62.62422351 248.34784048 -64.70024872 253.74590206 C-68.46841399 263.54371199 -72.23693334 273.341385 -76.00719452 283.13838863 C-84.78849189 305.9566264 -93.5592562 328.77878226 -102.29781342 351.61342525 C-109.77427168 371.14901102 -117.27772843 390.67419199 -124.79347992 410.19469357 C-125.56897618 412.21111601 -126.34289469 414.2281461 -127.11507416 416.24584103 C-128.68037202 420.33153376 -130.25332324 424.40974695 -131.92217255 428.45439816 C-132.3909079 429.60456417 -132.85964325 430.75473019 -133.3425827 431.93974972 C-133.73534393 432.87286983 -134.12810516 433.80598995 -134.53276825 434.76738644 C-135.3228209 437.69318897 -135.14233871 439.39391885 -134.20586395 442.26006222 C-116.62247276 459.03835308 -88.31709861 468.53484386 -65.39336395 475.25224972 C-62.78822355 476.07593381 -60.61155549 477.00829377 -58.20586395 478.26006222 C-74.38292308 478.33020682 -90.55993273 478.38307703 -106.73710728 478.41549873 C-114.24879865 478.43095419 -121.76039542 478.45201833 -129.27202606 478.48638058 C-135.8207264 478.51632353 -142.3693582 478.53564683 -148.91812509 478.5423277 C-152.38425746 478.54623171 -155.85019379 478.55537881 -159.3162632 478.57725239 C-163.18973788 478.60149774 -167.06302244 478.60202906 -170.93657684 478.60063839 C-172.65208992 478.61681713 -172.65208992 478.61681713 -174.40225983 478.63332272 C-184.15889749 478.59541372 -191.0011494 475.99556216 -198.20586395 469.26006222 C-204.90519806 460.78438952 -206.27264883 451.8689571 -205.20586395 441.26006222 C-203.99585165 436.74221396 -202.15957753 432.62719881 -200.20586395 428.38506222 C-199.63126413 427.08410473 -199.05954078 425.78187401 -198.49028778 424.47856808 C-197.1754416 421.47515509 -195.84748873 418.47793737 -194.51299286 415.48320675 C-191.9011908 409.59766965 -189.37037094 403.67816199 -186.8425827 397.75615597 C-186.36668701 396.64147945 -185.89079132 395.52680294 -185.40047455 394.37834835 C-184.40785594 392.05305135 -183.41533465 389.72771281 -182.42290497 387.40233517 C-179.82036822 381.31129835 -177.20621693 375.22524881 -174.5925827 369.13896847 C-173.52267176 366.64698095 -172.45287139 364.15494599 -171.38311005 361.66289425 C-171.11878614 361.04715416 -170.85446224 360.43141407 -170.58212852 359.79701519 C-166.28168659 349.77830399 -161.98873127 339.75638206 -157.69478607 329.73488522 C-155.19880517 323.9098043 -152.70230747 318.08494488 -150.20586395 312.26006222 C-149.2058615 309.92672994 -148.2058615 307.5933966 -147.20586395 305.26006222 C-69.20586395 123.26006221 -69.20586395 123.26006221 -67.70613861 119.76076412 C-66.70516416 117.42511636 -65.70424873 115.0894433 -64.70339203 112.75374508 C-62.21878193 106.95561474 -59.73318067 101.15791349 -57.24541473 95.36113644 C-52.56052979 84.44188798 -47.88599438 73.51848986 -43.24462128 62.58067989 C-41.32290326 58.05220134 -39.39639968 53.52576333 -37.46884537 48.99976635 C-36.15561558 45.91520104 -34.84602324 42.82920551 -33.54131317 39.74101925 C-32.10020286 36.33043856 -30.65006441 32.92382514 -29.19805145 29.51787472 C-28.78030457 28.52248684 -28.36255768 27.52709896 -27.93215179 26.50154781 C-23.71444687 16.65707864 -19.64307305 7.91474621 -10.20586395 2.26006222 C-9.34815816 1.73733641 -9.34815816 1.73733641 -8.47312498 1.20405048 C-5.5369102 -0.01846085 -3.1808249 0.00559122 0 0 Z " fill="#F4900C" transform="translate(332.2058639526367,272.7399377822876)"/>
  <path d="M0 0 C0.93328125 -0.01611328 1.8665625 -0.03222656 2.828125 -0.04882812 C8.21445987 -0.05264281 11.96738871 0.32486432 16.625 3.3125 C17.31464844 3.75207031 18.00429688 4.19164062 18.71484375 4.64453125 C30.43454225 14.03515648 35.35974279 32.74954998 41.0625 46.1875 C41.98154606 48.34386853 42.90107309 50.50003213 43.82104492 52.65600586 C45.76425988 57.21085478 47.70550884 61.76653437 49.64550781 66.32275391 C54.05937349 76.68375516 58.5006584 87.03300157 62.93997192 97.38311768 C65.46764417 103.27705327 67.99348693 109.17177281 70.51953125 115.06640625 C71.53856563 117.44417686 72.55760859 119.82194379 73.57666016 122.19970703 C151.62499998 304.31249996 151.62499998 304.31249996 153.12483215 307.81211853 C154.12538182 310.14672764 155.12594132 312.48133253 156.12651062 314.81593323 C158.61818109 320.6297128 161.10968372 326.44356419 163.60083008 332.25756836 C167.66586272 341.74439363 171.73092169 351.23120487 175.80224609 360.71533203 C176.0668973 361.33185607 176.3315485 361.94838011 176.60421944 362.58358669 C177.93788698 365.69034033 179.27179321 368.79699124 180.60598755 371.90351868 C183.1927236 377.92764928 185.77448281 383.95384672 188.34570312 389.98461914 C189.31758358 392.26323681 190.28958601 394.54180246 191.26171875 396.8203125 C191.72706024 397.91111618 192.19240173 399.00191986 192.67184448 400.1257782 C195.39239823 406.48531295 198.1753058 412.81213031 201.01953125 419.1171875 C212.94880638 445.73278746 212.94880638 445.73278746 208.77734375 460.265625 C205.95001811 467.03499248 200.20824599 473.02087701 193.625 476.3125 C307.805 476.6425 421.985 476.9725 539.625 477.3125 C539.625 477.6425 539.625 477.9725 539.625 478.3125 C382.875 478.3125 226.125 478.3125 64.625 478.3125 C66.86070483 476.07679517 67.97929882 475.78148517 70.9765625 474.97265625 C93.18357974 468.60675081 115.98017608 459.15257999 134.625 445.3125 C135.57503906 444.72210937 136.52507812 444.13171875 137.50390625 443.5234375 C138.55384766 442.42902344 138.55384766 442.42902344 139.625 441.3125 C139.36433653 434.99842084 136.98133603 429.43590912 134.70703125 423.6015625 C134.30243683 422.54639938 133.89784241 421.49123627 133.48098755 420.40409851 C132.14013822 416.91250202 130.78886155 413.42503994 129.4375 409.9375 C128.48772997 407.47053686 127.53854068 405.00335776 126.59008789 402.53588867 C124.35491304 396.72481406 122.11221582 390.91667484 119.86631489 385.10973835 C117.25206119 378.34989085 114.64558455 371.58705078 112.0390625 364.82421875 C108.37376844 355.31747181 104.70393535 345.81248748 101.03125 336.30859375 C95.86503223 322.93872907 90.70900019 309.56496694 85.5625 296.1875 C85.15606262 295.13108307 84.74962524 294.07466614 84.33087158 292.98623657 C77.38920424 274.93876209 70.4912082 256.87475401 63.60083008 238.80764771 C57.78765199 223.56727234 51.94885601 208.33726453 46.0625 193.125 C45.72385925 192.24982727 45.38521851 191.37465454 45.03631592 190.47296143 C44.3497651 188.6987496 43.66321113 186.924539 42.97665405 185.15032959 C42.63373322 184.26411926 42.29081238 183.37790894 41.9375 182.46484375 C41.59288727 181.57428284 41.24827454 180.68372192 40.89321899 179.76617432 C36.43639556 168.24505567 31.99790062 156.71688018 27.5625 145.1875 C27.1447934 144.10171661 26.72708679 143.01593323 26.29672241 141.89724731 C18.02398966 120.38757976 9.81038395 98.85554191 1.625 77.3125 C3.540081 93.18360308 5.68886524 109.00391738 8.0625 124.8125 C8.40614367 127.11609687 8.74955924 129.41972778 9.09277344 131.72338867 C10.15904788 138.87244945 11.23047347 146.02073236 12.30327606 153.16881561 C12.63212128 155.35994993 12.96087674 157.55109769 13.28961182 159.74224854 C14.48066344 167.68083631 15.67213639 175.61936083 16.86376953 183.55786133 C16.98728161 184.38069579 17.11079369 185.20353025 17.23804855 186.0512991 C17.87291756 190.2806667 18.50788422 194.51001962 19.14300537 198.73934937 C23.01593154 224.5309067 26.86628885 250.32572834 30.6875 276.125 C30.81110271 276.95949551 30.93470543 277.79399101 31.06205368 278.65377426 C35.11117901 305.99532864 39.12869592 333.34148174 43.13339233 360.6895752 C45.90076293 379.58795514 48.6808432 398.48425862 51.5 417.375 C51.77656088 419.23054552 52.05309163 421.08609553 52.32958984 422.94165039 C53.47526864 430.62672157 54.6239319 438.31131118 55.78283691 445.99440002 C56.26670654 449.20755032 56.7471842 452.42120163 57.22686768 455.63497925 C57.4464034 457.10016762 57.66749111 458.5651245 57.89031982 460.02981567 C58.18995728 461.99974718 58.48379978 463.97055753 58.77734375 465.94140625 C58.94226318 467.03525635 59.10718262 468.12910645 59.27709961 469.25610352 C59.625 472.3125 59.625 472.3125 59.625 478.3125 C20.355 478.3125 -18.915 478.3125 -59.375 478.3125 C-58.25215134 464.83831602 -58.25215134 464.83831602 -57.4296875 459.86328125 C-57.2438208 458.71359863 -57.0579541 457.56391602 -56.86645508 456.37939453 C-56.6630249 455.14044434 -56.45959473 453.90149414 -56.25 452.625 C-54.0708287 439.08392197 -52.10115013 425.51837138 -50.1875 411.9375 C-47.48027814 392.75493764 -44.6222024 373.5978044 -41.70063019 354.44701004 C-38.65399089 334.47625051 -35.64130037 314.50307816 -32.8125 294.5 C-29.10948697 268.32802716 -25.2461076 242.18044072 -21.37078285 216.03351021 C-20.28853896 208.7307302 -19.20822779 201.42766455 -18.12788391 194.12460327 C-16.94372284 186.11983001 -15.75885071 178.115162 -14.57390976 170.11050415 C-14.19647864 167.5606578 -13.81913389 165.01079868 -13.44180298 162.4609375 C-12.83744442 158.3771264 -12.23248758 154.29340417 -11.62737083 150.20970535 C-11.27163153 147.8071534 -10.9166995 145.40448315 -10.56184387 143.00180054 C-9.42979891 135.34779229 -8.28472845 127.69611332 -7.10803318 120.04882717 C-6.54272285 116.37407912 -5.98141183 112.6987237 -5.42004967 109.02337074 C-5.15102256 107.27078196 -4.87984622 105.51852154 -4.6063633 103.76662254 C-4.22664031 101.33388838 -3.85421665 98.90013242 -3.4831543 96.46606445 C-3.37038084 95.75692461 -3.25760738 95.04778477 -3.14141655 94.31715584 C-2.42932903 89.58389465 -2.28035647 85.08214592 -2.375 80.3125 C-2.57972427 80.85229996 -2.78444855 81.39209991 -2.99537659 81.94825745 C-13.07006972 108.50985344 -23.17133284 135.06047366 -33.39004517 161.5670166 C-37.19555574 171.43861487 -40.99191612 181.31373148 -44.78909302 191.1885376 C-46.92552942 196.744286 -49.06239701 202.29986855 -51.19921875 207.85546875 C-52.06429241 210.10465416 -52.92936402 212.35384036 -53.79443359 214.60302734 C-55.49527995 219.02522786 -57.1961263 223.44742839 -58.89697266 227.86962891 C-59.30968918 228.94269287 -59.7224057 230.01575684 -60.14762878 231.12133789 C-60.9787723 233.28230899 -61.80991854 235.44327904 -62.6410675 237.60424805 C-64.71723734 243.002254 -66.79335956 248.40027826 -68.86938477 253.79833984 C-72.63755004 263.59614977 -76.40606939 273.39382278 -80.17633057 283.19082642 C-88.95762794 306.00906418 -97.72839225 328.83122004 -106.46694946 351.66586304 C-113.94340773 371.2014488 -121.44686447 390.72662977 -128.96261597 410.24713135 C-129.73811223 412.26355379 -130.51203074 414.28058389 -131.28421021 416.29827881 C-132.84950807 420.38397154 -134.42245928 424.46218474 -136.09130859 428.50683594 C-136.56004395 429.65700195 -137.0287793 430.80716797 -137.51171875 431.9921875 C-137.90447998 432.92530762 -138.29724121 433.85842773 -138.7019043 434.81982422 C-139.49195695 437.74562676 -139.31147476 439.44635664 -138.375 442.3125 C-120.79160881 459.09079086 -92.48623466 468.58728165 -69.5625 475.3046875 C-66.9573596 476.1283716 -64.78069153 477.06073155 -62.375 478.3125 C-78.55205913 478.3826446 -94.72906877 478.43551482 -110.90624332 478.46793652 C-118.4179347 478.48339197 -125.92953147 478.50445612 -133.44116211 478.53881836 C-139.98986245 478.56876131 -146.53849425 478.58808461 -153.08726114 478.59476548 C-156.5533935 478.59866949 -160.01932984 478.60781659 -163.48539925 478.62969017 C-167.35887393 478.65393552 -171.23215849 478.65446685 -175.10571289 478.65307617 C-176.82122597 478.66925491 -176.82122597 478.66925491 -178.57139587 478.6857605 C-188.32803354 478.6478515 -195.17028545 476.04799995 -202.375 469.3125 C-209.07433411 460.8368273 -210.44178488 451.92139489 -209.375 441.3125 C-208.1649877 436.79465174 -206.32871358 432.67963659 -204.375 428.4375 C-203.80040018 427.13654251 -203.22867683 425.8343118 -202.65942383 424.53100586 C-201.34457764 421.52759287 -200.01662477 418.53037515 -198.68212891 415.53564453 C-196.07032685 409.65010743 -193.53950699 403.73059977 -191.01171875 397.80859375 C-190.53582306 396.69391724 -190.05992737 395.57924072 -189.5696106 394.43078613 C-188.57699199 392.10548913 -187.5844707 389.78015059 -186.59204102 387.45477295 C-183.98950427 381.36373613 -181.37535298 375.27768659 -178.76171875 369.19140625 C-177.69180781 366.69941874 -176.62200743 364.20738377 -175.55224609 361.71533203 C-175.28792219 361.09959194 -175.02359829 360.48385185 -174.75126457 359.84945297 C-170.45082263 349.83074177 -166.15786732 339.80881984 -161.86392212 329.787323 C-159.36794122 323.96224208 -156.87144352 318.13738266 -154.375 312.3125 C-153.37499754 309.97916772 -152.37499754 307.64583439 -151.375 305.3125 C-73.375 123.3125 -73.375 123.3125 -71.87527466 119.8132019 C-70.87430021 117.47755414 -69.87338478 115.14188108 -68.87252808 112.80618286 C-66.38791798 107.00805252 -63.90231672 101.21035127 -61.41455078 95.41357422 C-56.72966584 84.49432576 -52.05513042 73.57092764 -47.41375732 62.63311768 C-45.49203931 58.10463912 -43.56553573 53.57820111 -41.63798141 49.05220413 C-40.32475163 45.96763882 -39.01515929 42.88164329 -37.71044922 39.79345703 C-36.26933891 36.38287634 -34.81920046 32.97626292 -33.3671875 29.5703125 C-32.94944061 28.57492462 -32.53169373 27.57953674 -32.10128784 26.5539856 C-25.3157745 10.71604101 -18.20183609 -0.06233506 0 0 Z " fill="#FECB4D" transform="translate(336.375,272.6875)"/>
  <path d="M0 0 C0.33 0 0.66 0 1 0 C5.11557576 25.95595206 9.05876768 51.93600549 12.875 77.9375 C12.98088188 78.65874306 13.08676376 79.37998611 13.19585419 80.12308502 C15.57814634 96.35420855 17.94394867 112.58768184 20.2890625 128.82421875 C21.02589431 133.92450047 21.76282954 139.02476721 22.5 144.125 C22.68272461 145.38944946 22.86544922 146.65389893 23.05371094 147.95666504 C26.0102245 168.39440938 29.07455166 188.8144179 32.18616104 209.22895432 C35.76408821 232.70397441 39.25246699 256.19114997 42.6875 279.6875 C42.80420044 280.48570412 42.92090088 281.28390823 43.0411377 282.10630035 C43.39138334 284.50201546 43.74159686 286.89773526 44.09179688 289.29345703 C44.43449079 291.63782731 44.7771866 293.98219732 45.11989975 296.32656479 C45.34389372 297.85886175 45.56786492 299.39116204 45.7918129 300.92346573 C47.65645605 313.67994908 49.54127142 326.43333402 51.44519043 339.184021 C51.86533434 341.9977681 52.28481048 344.81161398 52.70410156 347.62548828 C53.84989133 355.31178799 54.99874823 362.99759351 56.15783691 370.68190002 C56.64170654 373.89505032 57.1221842 377.10870163 57.60186768 380.32247925 C57.8214034 381.78766762 58.04249111 383.2526245 58.26531982 384.71731567 C58.56495728 386.68724718 58.85879978 388.65805753 59.15234375 390.62890625 C59.31726318 391.72275635 59.48218262 392.81660645 59.65209961 393.94360352 C60 397 60 397 60 403 C20.73 403 -18.54 403 -59 403 C-57.87715134 389.52581602 -57.87715134 389.52581602 -57.0546875 384.55078125 C-56.8688208 383.40109863 -56.6829541 382.25141602 -56.49145508 381.06689453 C-56.2880249 379.82794434 -56.08459473 378.58899414 -55.875 377.3125 C-53.6958287 363.77142197 -51.72615013 350.20587138 -49.8125 336.625 C-47.10527814 317.44243764 -44.2472024 298.2853044 -41.32563019 279.13451004 C-38.27899089 259.16375051 -35.26630037 239.19057816 -32.4375 219.1875 C-28.93189035 194.41072502 -25.28379082 169.65584623 -21.61523056 144.90272999 C-20.34265638 136.3161579 -19.07272834 127.72919675 -17.80366516 119.1421051 C-11.93294705 79.41832164 -6.03224306 39.69963198 0 0 Z " fill="#2A3033" transform="translate(336,348)"/>
  <path d="M0 0 C0.33 0 0.66 0 1 0 C1.3744003 8.79341499 -0.04194002 17.28859181 -1.34375 25.953125 C-1.59137874 27.63318012 -1.83845175 29.31331724 -2.08500671 30.99353027 C-2.74546662 35.4829397 -3.41396659 39.97111732 -4.08410263 44.45909119 C-4.78247134 49.14554396 -5.47333748 53.83310325 -6.1652832 58.52050781 C-9.43908464 80.67225239 -12.76442197 102.81624895 -16.13085938 124.95410156 C-18.76309454 142.28833312 -21.28225845 159.63839371 -23.78749084 176.99135971 C-26.59252374 196.41954831 -29.46765602 215.83536802 -32.4213562 235.2414856 C-35.28069779 254.04607242 -38.02386185 272.86625011 -40.73868942 291.69210434 C-45.90265827 327.50054931 -51.16953967 363.29295721 -57 399 C-64.46768902 397.82863297 -71.49397298 396.12757012 -78.625 393.625 C-79.60210937 393.28267334 -80.57921875 392.94034668 -81.5859375 392.58764648 C-98.81939204 386.34516656 -115.7304204 378.17971973 -131 368 C-131.82242188 367.45859375 -132.64484375 366.9171875 -133.4921875 366.359375 C-135.5 364.875 -135.5 364.875 -138 362 C-137.77022023 355.99228613 -135.58503071 350.78546917 -133.37890625 345.25 C-133.00785767 344.30094284 -132.63680908 343.35188568 -132.2545166 342.37406921 C-131.45143916 340.32234652 -130.64497118 338.27194838 -129.83547974 336.2227478 C-128.0954092 331.81748641 -126.37183328 327.40582842 -124.64707947 322.99455261 C-123.75231219 320.70663157 -122.8566828 318.41904752 -121.96022034 316.13179016 C-117.6014164 305.00632987 -113.32482482 293.85019887 -109.0625 282.6875 C-107.57215906 278.7888542 -106.08105363 274.89050101 -104.58984375 270.9921875 C-104.21673569 270.01661392 -103.84362762 269.04104034 -103.45921326 268.03590393 C-99.02907693 256.45582387 -94.57745808 244.88401183 -90.125 233.3125 C-89.70904572 232.23140961 -89.29309143 231.15031921 -88.86453247 230.03646851 C-86.75396358 224.55109093 -84.64315939 219.06580394 -82.53222656 213.58056641 C-80.01813524 207.04748699 -77.50500649 200.51403763 -74.9921875 193.98046875 C-74.37424568 192.37377319 -74.37424568 192.37377319 -73.74382019 190.73461914 C-71.66188041 185.32132625 -69.58005239 179.9079904 -67.49829102 174.49462891 C-63.75903902 164.77148837 -60.01917154 155.04858743 -56.2756958 145.32707214 C-47.27742904 121.95913784 -38.30297299 98.58239056 -29.375 75.1875 C-28.50302005 72.90307274 -27.63103117 70.61864889 -26.7590332 68.33422852 C-23.28509147 59.23247752 -19.81151405 50.13059017 -16.34277344 41.02685547 C-14.2145724 35.44149919 -12.08388924 29.85709575 -9.95147705 24.27334595 C-9.15520137 22.18678816 -8.35990136 20.09985776 -7.56561279 18.01254272 C-6.47847012 15.15586246 -5.38807911 12.30044333 -4.296875 9.4453125 C-3.97504242 8.59718491 -3.65320984 7.74905731 -3.32162476 6.87522888 C-1.11402137 1.11402137 -1.11402137 1.11402137 0 0 Z " fill="#FEE7B5" transform="translate(334,352)"/>
  <path d="M0 0 C2.06494808 2.06494808 2.61774792 3.23195485 3.62207031 5.91235352 C4.08724312 7.14113724 4.08724312 7.14113724 4.56181335 8.39474487 C4.8971962 9.29701813 5.23257904 10.19929138 5.578125 11.12890625 C6.11630608 12.55579269 6.11630608 12.55579269 6.6653595 14.01150513 C7.4498522 16.09269819 8.23195333 18.1747939 9.01199341 20.25765991 C11.1461597 25.95478492 13.29876016 31.64494676 15.44921875 37.3359375 C15.90094955 38.53270615 16.35268036 39.72947479 16.81809998 40.96250916 C21.83152485 54.23047064 26.94439657 67.45964812 32.0625 80.6875 C33.92628816 85.50761664 35.78947816 90.32796424 37.65234375 95.1484375 C38.10619446 96.32277344 38.56004517 97.49710937 39.02764893 98.70703125 C43.41592565 110.06692435 47.77446501 121.43810904 52.125 132.8125 C58.35936437 149.11020296 64.60906097 165.4019083 70.875 181.6875 C71.2912262 182.76931549 71.70745239 183.85113098 72.1362915 184.96572876 C74.24658298 190.45037498 76.35712329 195.9349254 78.46777344 201.41943359 C83.06284199 213.36010876 87.65486299 225.30195636 92.24743652 237.24359131 C93.49566773 240.48922448 94.74391943 243.73484976 95.9921875 246.98046875 C96.40428467 248.05196167 96.81638184 249.12345459 97.2409668 250.22741699 C100.60601569 258.97647842 103.97242812 267.72501479 107.33946228 276.47331238 C109.42755315 281.89914922 111.51449198 287.32542387 113.59887695 292.75268555 C114.41875362 294.88721814 115.23865915 297.02173965 116.05859375 299.15625 C116.4626796 300.20823074 116.86676544 301.26021149 117.28309631 302.34407043 C119.81788323 308.93832078 122.36530996 315.527552 124.92132568 322.11360168 C126.6119651 326.47248338 128.29697388 330.83352954 129.98114014 335.19491577 C130.77718275 337.25212107 131.57583477 339.3083188 132.3772583 341.36343384 C133.48088892 344.19416484 134.57540239 347.02826504 135.66796875 349.86328125 C135.99297867 350.68997314 136.31798859 351.51666504 136.65284729 352.3684082 C138.40029462 356.93340111 139.68603329 361.1034471 140 366 C128.207642 382.34644 96.32068664 391.94061656 78.10498047 398.26855469 C76.17125093 398.94049318 74.24350323 399.62958209 72.31640625 400.3203125 C67.6313991 401.96035172 63.97881324 403.08337726 59 403 C53.91922044 369.06823586 48.85867635 335.13367444 43.875 301.1875 C43.77097744 300.47897762 43.66695488 299.77045525 43.55978012 299.04046249 C43.24451799 296.89310553 42.92926578 294.74574711 42.61401367 292.59838867 C42.19972783 289.77652689 41.78541877 286.95466853 41.37109375 284.1328125 C41.26992437 283.44372362 41.168755 282.75463474 41.06451988 282.04466438 C39.03396108 268.21552855 36.98848401 254.38862063 34.9375 240.5625 C32.38505139 223.35458031 29.83967052 206.14564218 27.30255127 188.93545532 C23.81950293 165.30993802 20.32879756 141.68556022 16.83056641 118.06228638 C16.32010591 114.61511233 15.80986047 111.16790656 15.29980469 107.72067261 C12.67632919 89.99069582 10.04491266 72.26201244 7.37623405 54.5387764 C7.01629648 52.1475988 6.65681101 49.75635371 6.29750061 47.36508179 C6.12369763 46.20849154 6.12369763 46.20849154 5.94638348 45.02853584 C5.71649436 43.49869588 5.48662113 41.96885354 5.25676441 40.43900871 C4.59525095 36.03858729 3.93034329 31.63869546 3.2628603 27.2391758 C2.95355413 25.19684984 2.6458836 23.15428556 2.33894348 21.11160278 C1.9682729 18.64524698 1.59491179 16.17929339 1.2183075 13.71383667 C1.05635391 12.63103424 0.89440033 11.54823181 0.72753906 10.43261719 C0.58608459 9.49778503 0.44463013 8.56295288 0.29888916 7.59979248 C0.00467576 5.04067063 -0.05416191 2.57338139 0 0 Z " fill="#FEE7B5" transform="translate(337,348)"/>
  <path d="M0 0 C1.50855339 3.6006459 3.00535824 7.20605959 4.5 10.8125 C5.14388672 12.34874023 5.14388672 12.34874023 5.80078125 13.91601562 C6.20683594 14.89892578 6.61289062 15.88183594 7.03125 16.89453125 C7.40830078 17.80050049 7.78535156 18.70646973 8.17382812 19.63989258 C9 22 9 22 9 25 C-13.77 25 -36.54 25 -60 25 C-57.76429517 22.76429517 -56.64570118 22.46898517 -53.6484375 21.66015625 C-47.51389174 19.90161579 -41.58261787 17.71840127 -35.625 15.4375 C-33.93600586 14.79192139 -33.93600586 14.79192139 -32.21289062 14.13330078 C-22.36120213 10.28924878 -12.96288446 5.75782868 -3.65039062 0.75927734 C-2 0 -2 0 0 0 Z " fill="#FFAC34" transform="translate(461,726)"/>
  <path d="M0 0 C5.02335794 1.4291325 9.4976866 3.66713128 14.15063477 5.98730469 C27.7560861 12.76534283 41.59595368 18.17580237 56 23 C56 23.33 56 23.66 56 24 C34.55 24 13.1 24 -9 24 C-6 16 -3 8 0 0 Z " fill="#FFAC34" transform="translate(212,726)"/>
  <path d="M0 0 C1.97779184 0.11691241 3.95914755 0.17672996 5.94018555 0.20532227 C7.77174446 0.2352401 7.77174446 0.2352401 9.64030457 0.26576233 C10.95912125 0.28247482 12.27793793 0.29918732 13.63671875 0.31640625 C15.00007244 0.3369826 16.36341985 0.35797925 17.72676086 0.37937927 C21.31221422 0.4345297 24.89772448 0.48396987 28.48327637 0.53222656 C32.1431992 0.58249299 35.80303957 0.63815219 39.46289062 0.69335938 C46.64185721 0.80085494 53.82089245 0.9023189 61 1 C61 1.33 61 1.66 61 2 C38.23 2 15.46 2 -8 2 C-5.14066998 -0.85933002 -3.8625627 -1.2875209 0 0 Z " fill="#FFB645" transform="translate(409,749)"/>
</svg>