<svg width="1200" height="630" viewBox="0 0 1200 630" fill="none" xmlns="http://www.w3.org/2000/svg">
  <defs>
    <linearGradient id="bg" x1="0" y1="0" x2="1200" y2="630" gradientUnits="userSpaceOnUse">
      <stop stop-color="#2E2F33" />
      <stop offset="1" stop-color="#3A3B40" />
    </linearGradient>
  </defs>
  <rect width="1200" height="630" fill="url(#bg)" />
  <rect x="80" y="140" width="1040" height="350" rx="28" fill="#4A4B50" />
  <g transform="translate(150 210) scale(7)">
    <path
      fill="#F4900C"
      d="M16.812 33c-.588 0-1.112-.37-1.31-.924L8.549 12.608a1.34 1.34 0 0 1 .173-1.242c.261-.369.685-.563 1.137-.563h16.313c.557 0 1.059.305 1.279.817l8.343 19.455c.184.43.14.917-.116 1.307a1.39 1.39 0 0 1-1.163.618z"
    />
    <path
      fill="#FFCC4D"
      d="M1.515 33c-.467 0-.904-.236-1.162-.625a1.4 1.4 0 0 1-.116-1.315l8.348-19.479a1.392 1.392 0 0 1 2.557 0L19.49 31.06A1.391 1.391 0 0 1 18.212 33z"
    />
    <path fill="#292F33" d="M9.859 14.182 7.077 33h5.563z" />
    <path fill="#FFAC33" d="M15.46 31.456 16.081 33H12.64zm-11.203 0L3.636 33h3.441z" />
    <path
      fill="#FFE8B6"
      d="M12.64 33s2.529-.645 3.766-1.786L9.859 14.182zm-5.563 0s-2.529-.645-3.766-1.786l6.546-17.031z"
    />
  </g>
  <text x="430" y="300" fill="#FFFFFF" font-size="82" font-family="Inter, Arial, sans-serif" font-weight="700">
    Campsite
  </text>
  <text x="430" y="370" fill="#D2D5DB" font-size="36" font-family="Inter, Arial, sans-serif">
    Internal communications and staff management
  </text>
</svg>
